<svg width="17" height="16" viewBox="0 0 17 16" fill="none" xmlns="http://www.w3.org/2000/svg">
<g clip-path="url(#clip0_0_616)">
<path d="M13.9916 0.332264H5.32489C4.88286 0.332264 4.45894 0.507858 4.14638 0.820419C3.83382 1.13298 3.65822 1.5569 3.65822 1.99893V13.0896C3.65815 13.5789 3.54419 14.0614 3.32539 14.499C3.10658 14.9366 2.78892 15.3173 2.39756 15.6109L2.32489 15.6656H10.9916L11.0642 15.6109C11.4556 15.3173 11.7732 14.9366 11.9921 14.499C12.2109 14.0614 12.3248 13.5789 12.3249 13.0896V2.09426C12.316 1.66965 12.4632 1.25653 12.7388 0.933325C13.0143 0.610117 13.3989 0.399316 13.8196 0.34093C14.0517 0.316844 14.2863 0.341785 14.5082 0.414139C14.7301 0.486492 14.9344 0.604645 15.1077 0.760946C15.281 0.917247 15.4196 1.10821 15.5144 1.32147C15.6093 1.53473 15.6583 1.76553 15.6582 1.99893V4.33226C15.6582 4.50908 15.588 4.67864 15.463 4.80367C15.3379 4.92869 15.1684 4.99893 14.9916 4.99893H12.3249" stroke="#00a25b" stroke-linecap="round" stroke-linejoin="round"/>
<path d="M5.32489 3H6.99156" stroke="#00a25b" stroke-linecap="round" stroke-linejoin="round"/>
<path d="M6.66864 5H10.3353" stroke="#00a25b" stroke-linecap="round" stroke-linejoin="round"/>
<path d="M5.32489 7H10.3249" stroke="#00a25b" stroke-linecap="round" stroke-linejoin="round"/>
<path d="M5.32489 9H10.3249" stroke="#00a25b" stroke-linecap="round" stroke-linejoin="round"/>
<path d="M5.32489 11H8.32489" stroke="#00a25b" stroke-linecap="round" stroke-linejoin="round"/>
<path d="M5.32489 11H10.3249" stroke="#00a25b" stroke-linecap="round" stroke-linejoin="round"/>
<path d="M5.32489 13H8.32489" stroke="#00a25b" stroke-linecap="round" stroke-linejoin="round"/>
</g>
<defs>
<clipPath id="clip0_0_616">
<rect width="15.9864" height="16" fill="white" transform="translate(0.988953)"/>
</clipPath>
</defs>
</svg>
