<svg  viewBox="0 0 38 38" fill="none" xmlns="http://www.w3.org/2000/svg">
<path d="M4.35547 19.7917H9.10547C9.21124 19.7847 9.31729 19.8003 9.41651 19.8377C9.51573 19.875 9.60584 19.933 9.6808 20.008C9.75575 20.083 9.81383 20.1731 9.85114 20.2723C9.88845 20.3715 9.90413 20.4776 9.89713 20.5833V34.8333C9.90413 34.9391 9.88845 35.0451 9.85114 35.1444C9.81383 35.2436 9.75575 35.3337 9.6808 35.4087C9.60584 35.4836 9.51573 35.5417 9.41651 35.579C9.31729 35.6163 9.21124 35.632 9.10547 35.625H4.35547" stroke="#222222" stroke-width="1.5" stroke-linecap="round" stroke-linejoin="round"/>
<path d="M16.4376 17.6855L13.4609 21.3747C13.271 21.6145 13.0308 21.8097 12.7572 21.9465C12.4836 22.0832 12.1834 22.1583 11.8776 22.1664H9.89844" stroke="#222222" stroke-width="1.5" stroke-linecap="round" stroke-linejoin="round"/>
<path d="M9.89844 31.6667C13.0651 34.0417 16.3426 35.625 18.2109 35.625H29.6901C30.8459 35.625 31.5584 35.5458 32.0651 34.0417C32.8202 30.3833 33.349 26.6818 33.6484 22.9583C33.6484 22.1667 32.8568 21.375 31.2734 21.375H18.6068" stroke="#222222" stroke-width="1.5" stroke-linecap="round" stroke-linejoin="round"/>
<path d="M16.6263 19L14.3938 3.2775C14.3747 3.16562 14.3805 3.05092 14.4106 2.94149C14.4406 2.83206 14.4944 2.73057 14.568 2.64417C14.6443 2.56028 14.7372 2.49307 14.8407 2.44675C14.9442 2.40043 15.0562 2.376 15.1696 2.375H26.1263" stroke="#222222" stroke-width="1.5" stroke-linecap="round" stroke-linejoin="round"/>
<path d="M20.5837 21.3753L19.0954 6.41283C19.0818 6.30108 19.0932 6.18772 19.1288 6.08092C19.1644 5.97413 19.2233 5.87659 19.3012 5.79533C19.3765 5.71551 19.4673 5.65188 19.568 5.60832C19.6688 5.56476 19.7773 5.5422 19.887 5.54199H32.7279C32.8413 5.54299 32.9533 5.56742 33.0568 5.61374C33.1604 5.66006 33.2532 5.72727 33.3295 5.81116C33.4031 5.89756 33.4569 5.99906 33.487 6.10848C33.5171 6.21791 33.5228 6.33261 33.5037 6.44449L31.2712 21.3753" stroke="#222222" stroke-width="1.5" stroke-linecap="round" stroke-linejoin="round"/>
<path d="M26.3014 15.8333C27.3945 15.8333 28.2806 14.9472 28.2806 13.8542C28.2806 12.7611 27.3945 11.875 26.3014 11.875C25.2084 11.875 24.3223 12.7611 24.3223 13.8542C24.3223 14.9472 25.2084 15.8333 26.3014 15.8333Z" stroke="#222222" stroke-width="1.5" stroke-linecap="round" stroke-linejoin="round"/>
</svg>
