<svg  viewBox="0 0 38 38" fill="none" xmlns="http://www.w3.org/2000/svg">
<path d="M5.29868 6.70312C7.51732 7.17307 9.71764 9.10289 10.3419 11.2321M3.63086 12.1143C5.46578 11.1188 7.91482 11.3613 9.47584 11.8507" stroke="#222222" stroke-width="1.5" stroke-linecap="round" stroke-linejoin="round"/>
<path d="M26.3355 13.4427C25.1629 12.2606 23.8446 11.2561 22.4199 10.5156M31.5692 23.0169C31.7929 24.0597 31.9109 25.0958 31.9109 26.0992C31.9109 33.6448 25.241 36.4643 17.013 36.4643C8.78521 36.4643 2.11523 33.6448 2.11523 26.0992C2.11523 20.3024 6.05143 13.4028 11.6063 10.5156" stroke="#222222" stroke-width="1.5" stroke-linecap="round" stroke-linejoin="round"/>
<path d="M22.2632 10.3555C22.2632 10.3555 20.6451 11.2617 17.0113 11.2617C13.3778 11.2617 11.7596 10.3555 11.7596 10.3555C6.86012 5.44375 8.79693 -1.05432 14.7036 2.60745C16.1047 3.476 17.9181 3.476 19.3192 2.60745C25.2258 -1.05432 27.1627 5.44375 22.2632 10.3555Z" stroke="#222222" stroke-width="1.5" stroke-linecap="round" stroke-linejoin="round"/>
<path d="M21.1465 17.2188L21.2238 23.1547L27.1597 23.2319" stroke="#222222" stroke-width="1.5" stroke-linecap="round" stroke-linejoin="round"/>
<path d="M21.4551 22.9252C26.0569 16.9973 31.4958 15.4493 36.3588 20.7558" stroke="#222222" stroke-width="1.5" stroke-linecap="round" stroke-linejoin="round"/>
</svg>
