<svg width="13" height="12" viewBox="0 0 13 12" fill="none" xmlns="http://www.w3.org/2000/svg">
<path d="M2.25049 2.0013C2.25049 1.80239 2.32951 1.61163 2.47016 1.47097C2.61081 1.33032 2.80158 1.2513 3.00049 1.2513C3.1994 1.2513 3.39017 1.33032 3.53082 1.47097C3.67147 1.61163 3.75049 1.80239 3.75049 2.0013V7.8813C3.7504 7.9057 3.75746 7.92959 3.77079 7.95002C3.78411 7.97046 3.80313 7.98654 3.82549 7.9963C3.84873 8.00619 3.87435 8.00908 3.89921 8.00464C3.92407 8.00021 3.9471 7.98862 3.96549 7.9713L10.4655 1.4713C10.5351 1.40137 10.6178 1.34584 10.7088 1.30787C10.7999 1.2699 10.8976 1.25023 10.9962 1.25C11.0949 1.24977 11.1926 1.26897 11.2839 1.30651C11.3751 1.34406 11.4581 1.3992 11.528 1.4688C11.6692 1.60937 11.7488 1.80028 11.7493 1.99954C11.7498 2.19879 11.6711 2.39008 11.5305 2.5313L5.03049 9.0313C5.01695 9.05121 5.00971 9.07473 5.00971 9.0988C5.00971 9.12288 5.01695 9.1464 5.03049 9.1663C5.04025 9.18866 5.05634 9.20768 5.07677 9.221C5.09721 9.23433 5.12109 9.24139 5.14549 9.2413H11.0005C11.1994 9.2413 11.3902 9.32032 11.5308 9.46097C11.6715 9.60163 11.7505 9.79239 11.7505 9.9913C11.7505 10.1902 11.6715 10.381 11.5308 10.5216C11.3902 10.6623 11.1994 10.7413 11.0005 10.7413H3.50049C3.33504 10.7416 3.17117 10.709 3.01839 10.6455C2.86562 10.582 2.72697 10.4888 2.61049 10.3713C2.38302 10.1384 2.25408 9.82682 2.25049 9.5013V2.0013Z" fill="#00a25b"/>
</svg>
